<?xml version="1.0" encoding="UTF-8"?>
<svg version="1.1" viewBox="0 0 422.5 541.25" xmlns="http://www.w3.org/2000/svg" >
<path d="m325.68 122.1c-18.028-25.425-46.757-35.946-82.949-36.948-39.203-1.0855-95.34 23.424-94.939 69.491 0.33619 38.647 58.743 53.007 94.939 66.555 60.584 22.676 150.15 47.629 146.81 153.66-2.5231 80.167-84.228 135.36-151.71 134.09-55.383-1.0448-109.17-24.002-144.61-72.428-8.6904-11.874-6.9147-27.139 2.6916-34.501 9.6063-7.3623 26.571-7.315 34.99 4.8938 28.506 41.338 69.249 54.037 109.86 55.055 46.472 1.1643 101.77-28.742 102.77-92.003 1.0799-68.678-62.147-81.934-108.64-97.875-47.195-16.182-133.1-42.558-134.09-117.45-1.0399-78.895 83.464-115.89 144.86-114.51 46.251 1.035 100.55 19.299 123.32 58.725 6.2202 10.769 7.6284 26.093-2.2022 33.767-11.875 9.2692-28.412 7.3827-41.108-10.522z" fill="#0366d6" fill-rule="evenodd"/>
</svg>
