<svg id="a728da0d-a6bd-48cc-8386-3b36fd525f7c" data-name="Layer 1" xmlns="http://www.w3.org/2000/svg" width="984" height="393.19528" viewBox="0 0 984 393.19528"><path d="M933.70508,315.37258h61.6416V284.72316c0-.2749-.00391-.54394-.00879-.82861a30.87582,30.87582,0,0,0-30.80957-30.49219,30.37506,30.37506,0,0,0-21.78906,9.16944,30.944,30.944,0,0,0-3.03028,3.57861,31.38914,31.38914,0,0,0-6.0039,18.57275Z" transform="translate(-108 -253.40236)" fill="#2f2e41"/><circle cx="538" cy="366.34371" r="25" fill="#3f3d56"/><circle cx="626" cy="366.34371" r="25" fill="#3f3d56"/><circle cx="714" cy="366.34371" r="25" fill="#3f3d56"/><path d="M317.97412,585.34764H196.17432l-25.2002,58.45019h-45.5l112.7002-249.20019h36.75L387.97461,643.79783H342.82422Zm-15.0498-35-45.8501-106.75-45.8501,106.75Z" transform="translate(-108 -253.40236)" fill="#0070f3"/><path d="M580.82422,467.04783v176.75H537.77441V615.44725A56.80156,56.80156,0,0,1,514.6748,638.373q-15.05273,8.21924-34.2998,8.22461-23.10059,0-40.9502-11.19922-17.85059-11.19726-27.65039-31.85059-9.80273-20.647-9.7998-47.95019,0-27.29883,9.97461-48.47461,9.97558-21.17286,27.82519-32.90039Q457.625,462.501,480.375,462.498q19.24365,0,34.2998,8.22461a56.83122,56.83122,0,0,1,23.09961,22.92578V467.04783ZM525.875,597.248q11.89454-15.04395,11.89941-42.34961,0-27.999-11.89941-43.05078-11.90332-15.044-33.9502-15.04981-21.70605,0-33.77539,15.5752-12.0747,15.57714-12.07519,43.22461,0,27.30029,12.07519,42,12.07472,14.70117,34.125,14.70019Q513.97169,612.29783,525.875,597.248Z" transform="translate(-108 -253.40236)" fill="#0070f3"/><rect y="389.34371" width="984" height="2" fill="#3f3d56"/><path d="M1007.61475,437.07814c2.3858,2.513,6.02228,33.41381,16.78509,28.71822,8.69436-9.81759-5.91931-29.32058-7.40805-33.461Z" transform="translate(-108 -253.40236)" fill="#ffb8b8"/><polygon points="886.038 143.797 912.495 179.274 899.868 188.895 881.227 162.437 886.038 143.797" fill="#0070f3"/><path d="M952.54818,402.61115s-18.039,34.27409-3.60779,54.117,44.49619,63.13648,44.49619,63.13648c4.36323,37.15207,12.67761,72.5512,35.56342,102.53774l15.14836-4.15316L1022.299,511.44643s-12.026-62.53519-25.8559-78.169L994,403.40236Z" transform="translate(-108 -253.40236)" fill="#2f2e41"/><path d="M951.94688,453.12034l-12.026,59.52869C929.66276,519.09067,908.338,583.1873,900,605.40236l16.26759,6.04944c17.93575-28.32631,59.26286-102.6969,68.75079-134.27947Z" transform="translate(-108 -253.40236)" fill="#2f2e41"/><path d="M992.83528,282.35118c-.47246,27.66428-41.62255,27.65994-42.091-.00089C951.21674,254.6869,992.36683,254.69123,992.83528,282.35118Z" transform="translate(-108 -253.40236)" fill="#ffb8b8"/><path d="M977.80278,296.78237c-10.62853,15.93746-10.34416,21.45795,2.4052,36.078l-19.2416-13.8299s-13.82989,0-10.82339-6.6143,9.01949-20.4442,9.01949-20.4442Z" transform="translate(-108 -253.40236)" fill="#ffb8b8"/><path d="M966.97938,320.23307s-13.8299-10.2221-20.44419-3.6078c-6.57421,12.58977.03955,67.74926,2.40276,72.156,3.00893,4.81034,3.61023.60124,3.00893,6.01294s-3.00649,9.6208-2.40519,10.2221,46.90138,5.4117,46.90138,5.4117-3.60779-16.8364-2.40519-23.4507-1.2026-13.22859-1.2026-15.63379,3.60779-12.6273,0-20.4442-17.124-23.89468-17.124-23.89468l-.915,1.04529Z" transform="translate(-108 -253.40236)" fill="#0070f3"/><path d="M932.104,449.51254c1.32836,3.74175-9.24732,37.78968,4.20771,37.88281,13.67338-6.23275,7.44985-33.456,7.81829-38.48411Z" transform="translate(-108 -253.40236)" fill="#ffb8b8"/><path d="M948.94039,317.22657s-15.6338.6013-15.6338,19.24159-5.4117,51.71179-5.4117,51.71179V452.519h20.4442l-3.0065-60.73129L957.95988,352.102S974.195,326.84737,948.94039,317.22657Z" transform="translate(-108 -253.40236)" fill="#0070f3"/><path d="M1070.66361,636.76005h0a7.86828,7.86828,0,0,0-3.52094-7.71667l-22.58317-11.0826-17.02638,2.14936-4.02117,14.41551a7.67164,7.67164,0,0,0,6.71118,8.87672l31.77111.06945A7.86826,7.86826,0,0,0,1070.66361,636.76005Z" transform="translate(-108 -253.40236)" fill="#2f2e41"/><path d="M922.99421,641.64715h0a7.86826,7.86826,0,0,0,2.96683-7.94619l-8.13212-23.80529L904.26962,599.376l-13.03669,7.34991a7.67163,7.67163,0,0,0-1.53127,11.02231l22.41646,22.51468A7.86826,7.86826,0,0,0,922.99421,641.64715Z" transform="translate(-108 -253.40236)" fill="#2f2e41"/><path d="M947.78711,265.62212l5.61613,17.86817,48.556-.863a30.01576,30.01576,0,0,0-54.17209-17.00522Z" transform="translate(-108 -253.40236)" fill="#2f2e41"/></svg>